<?xml version="1.0" standalone="no"?><!DOCTYPE svg PUBLIC "-//W3C//DTD SVG 1.1//EN" "http://www.w3.org/Graphics/SVG/1.1/DTD/svg11.dtd"><svg t="1553672634656" class="icon" style="" viewBox="0 0 1024 1024" version="1.1" xmlns="http://www.w3.org/2000/svg" p-id="6633" xmlns:xlink="http://www.w3.org/1999/xlink" width="200" height="200"><defs><style type="text/css"></style></defs><path d="M512 0C228.072727 0 0 228.072727 0 512s228.072727 512 512 512 512-228.072727 512-512S795.927273 0 512 0z m0 930.909091c-232.727273 0-418.909091-186.181818-418.909091-418.909091s186.181818-418.909091 418.909091-418.909091 418.909091 186.181818 418.909091 418.909091-186.181818 418.909091-418.909091 418.909091z m214.109091-693.527273L395.636364 372.363636c-9.309091 4.654545-18.618182 13.963636-23.272728 23.272728l-130.327272 330.472727c-9.309091 18.618182-4.654545 37.236364 4.654545 51.2 9.309091 4.654545 23.272727 13.963636 32.581818 13.963636 4.654545 0 13.963636 0 18.618182-4.654545l330.472727-130.327273c13.963636-4.654545 23.272727-13.963636 27.927273-27.927273l130.327273-330.472727c4.654545-18.618182 0-37.236364-9.309091-51.2-13.963636-9.309091-32.581818-13.963636-51.2-9.309091z m-148.945455 339.781818l-209.454545 83.781819 83.781818-209.454546 209.454546-83.781818-83.781819 209.454545z" p-id="6634" fill="#dbdbdb"></path></svg>